<svg preserveAspectRatio="none" overflow="visible" style="display: block;" width="1096" height="178.435" viewBox="0 0 1096 178.435" fill="none" xmlns="http://www.w3.org/2000/svg">
<g id="Group 161">
<path id="Vector" d="M1094.19 73.94C1098.09 97.5555 1094.6 123.344 1093.77 148.596C1093.27 163.688 1081.62 176.96 1066.52 177.369C976.399 179.81 961.929 175.015 868.348 167.154C866.941 167.036 865.486 167.027 864.079 167.143C844.595 168.754 809.474 172.506 789.218 174.301C691.272 182.971 641.117 175.168 551.477 167.342C550.21 167.232 548.9 167.213 547.631 167.292C481.951 171.337 443.762 180.184 370.403 178.13C319.131 176.694 281.2 169.026 232.917 168.589C190.522 168.207 146.011 175.96 103.086 177.566L99.8256 177.683C76.16 178.599 48.437 178.068 22.7157 177.497C11.3216 177.244 1.30985 169.581 0.482723 158.215C-0.726244 141.6 0.756054 123.094 0.43829 108.528L0.714816 26.9817C0.762784 12.8363 12.0739 1.2831 26.2156 0.958635C49.035 0.435064 70.2073 0.115808 95.0083 0.828307C143.974 2.23226 179.324 9.48596 228.407 9.83694C252.35 9.99648 278.293 7.57148 299.768 5.31666C409.031 -6.14658 448.948 3.32042 545.435 11.3032C546.89 11.4236 548.362 11.4245 549.817 11.2974C617.697 5.36981 718.033 -5.96442 785.4 4.32758C875.692 18.1331 924.123 2.78528 998.995 0.647448L1002.44 0.562407C1025.35 -0.0744508 1047.58 0.382408 1070.15 1.00212C1082.74 1.34814 1093.34 10.6891 1093.72 23.2879C1094.22 40.1473 1093.22 57.5203 1094.19 73.94Z" fill="#F0DCD7"/>
</g>
</svg>
