<svg preserveAspectRatio="none" overflow="visible" style="display: block;" width="450.354" height="681" viewBox="0 0 450.354 681" fill="none" xmlns="http://www.w3.org/2000/svg">
<path id="Vector" d="M367.234 25.8683C377.006 14.8644 389.418 2.15492 405.431 1.33721C416.419 0.846588 427.132 4.70145 435.012 11.9673C443.268 19.6304 447.877 30.1203 447.776 41.0775C447.458 58.7867 436.857 65.445 423.866 77.22C431.103 100.186 481.823 107.849 420.193 152.916C458.644 176.396 455.885 203.707 420.358 227.514C458.324 254.078 457.461 275.175 420.577 302.603C423.467 304.472 426.285 306.458 429.026 308.537C465.738 336.572 446.717 352.623 423.198 376.243C425.43 392.62 484.729 412.222 419.393 452.944C459.777 475.372 455.121 503.828 420.733 528.313C456.181 549.853 457.486 581.113 421.301 602.069L424.213 604.359C463.841 636.039 452.338 676.831 399.275 679.214C382.92 672.509 379.641 667.719 368.773 654.87C325.724 705.614 324.379 669.028 296.665 656.459C264.488 682.228 259.855 694.844 226.22 655.991C212.788 658.211 186.998 712.133 154.092 652.51C131.041 685.148 105.53 690.242 82.5873 653.375C70.8994 668.607 58.3665 680.405 36.3947 677.952C25.4777 676.714 15.6248 671.154 9.27707 662.65C-8.57878 638.446 7.52825 617.349 28.9607 603.261C-7.76092 579.991 -6.33476 551.535 29.4434 528.803C-9.23643 502.426 -6.65255 479.04 29.6823 451.729C-10.8228 429.557 -3.99713 402.153 28.5247 377.668C-6.44557 352.132 -7.77322 325.172 30.3647 302.93C-9.18218 279.38 -5.25346 251.741 29.638 227.351C-7.99994 205.226 -6.67467 175.134 29.2119 152.776C14.3661 142.8 9.23772 138.992 1.05738 120.068C-6.63524 102.289 30.3006 81.0283 26.3767 77.6407C7.77454 61.637 -25.5331 16.0091 39.2322 1.31383C40.8087 1.454 42.3827 1.64086 43.9542 1.85113C64.4087 4.5846 69.7761 11.4066 81.1906 26.1253C104.729 -3.9265 130.691 -8.71594 152.437 26.8262C176.507 -1.3496 201.295 -12.0335 223.163 26.9429C232.878 16.2427 241.504 4.60805 257.192 1.50077C276.748 -2.40552 281.696 15.3316 295.239 23.9292C318.105 17.5277 328.071 -27.71 367.234 25.8683Z" fill="#B1877A"/>
</svg>
